<svg xmlns="http://www.w3.org/2000/svg" viewBox="0 0 300.31 300.31">
  <g id="Layer_2" data-name="Layer 2">
    <g id="Layer_1-2" data-name="Layer 1">
      <path
        d="M108.9,89.69c-8.78,0-17.36-2.3-25.93-2.3-19.45,0-25.93,10-25.93,16.94,0,5.85,4.6,10.66,11.5,10.66,5.65,0,10.25-3.55,11.71-7.11-2.93,0-4.81-1.46-4.81-4.18a4.19,4.19,0,0,1,4.18-4.18c2.93,0,4.19,2.72,4.19,5.85-.63,5.23-5.86,11.92-15.9,11.92-10.45,0-14.63-9-14.63-18,0-15.47,14.84-36.38,42.86-36.38,15.68,0,29.69,5.85,36.38,5.85,11.71-.63,12.55-5.64,14.22-5.64.42,0,.63.41.63.83a6,6,0,0,1-.42,1.88C145.28,69.62,131.69,89.69,108.9,89.69ZM96.77,286.24c-19.87,0-34.29-12.33-34.29-35.34,0-29.9,28.23-46.83,48.72-46.83,4.6,0,8.36.62,10.45.62,1.88,0,3.14-1.46,4-1.46a.73.73,0,0,1,.42.21S107.43,231,109.32,231l-.42-.42c-.63-.63-2.51-2.3-8.37-2.3-11.5,0-33.24,8.16-33.24,27.6,0,14.85,10.66,28,29.06,28,18,0,28.44-13,28.44-22.79,0-7.74-5-15.47-13.38-15.47-9.62,0-11.71,5.43-11.71,6.9,0,.41,0,.62.42.62s1-.41,1.67-.41c1,0,2.3,1.67,2.3,2.71a3,3,0,0,1-2.93,3.14c-2.09,0-4-1.46-4-4.6,0-6.27,6.27-11.08,14-11.08,8.36,0,16.1,7.11,16.1,18C127.3,272.44,115.38,286.24,96.77,286.24ZM246.06,62.93c0-5-3.34-5-4.18-5-1.88,0-1,4.39-5.43,4.39-2.3,0-3.56-1.88-3.56-4,0-2.51,2.3-5,6.27-5s9.62,2.92,9.62,10.66c0,14.85-21.33,31.16-28.43,32.41-2.3.42-2.3,1.47-2.3,3.35V203.86c0,6.06,9.2,14,14.21,14h1.47c.42,0,.83.21.83.62a2,2,0,0,1-.62,1c-1.26.84-20.91,17.15-22.59,18a6.59,6.59,0,0,1-3.13,1.26c-3.35,0-22-13.39-27.18-23.84a4.73,4.73,0,0,1-1-2.09,11.78,11.78,0,0,0,3.35-7.95V100.77c0-4.18-5.86-9.2-7.74-9.2-3.14,0-8.57,7.11-8.57,11.08v9.41h7.31v-5.43a3.59,3.59,0,0,1-2.3-3.35,3.36,3.36,0,0,1,3.56-3.34,3.3,3.3,0,0,1,3.34,3.34,3.67,3.67,0,0,1-2.3,3.35v87.19a3.92,3.92,0,0,1,2.3,3.35,3.3,3.3,0,0,1-3.34,3.34,3.36,3.36,0,0,1-3.56-3.34,3.15,3.15,0,0,1,2.3-3.14V120.85H167V200.3c0,9,10,11.29,10,12.76,0-.63-19.65,15.89-21.33,25.72-.2,1.25-.83,1.88-1.46,1.88s-1-.63-1-1.67c0-5-20.29-20.7-25.72-20.7-1.26,0-1.89-.42-1.89-.84,0-.84,10.88-5.65,10.88-12.13V120.85h-6.07v73a3.92,3.92,0,0,1,2.3,3.35,3.3,3.3,0,0,1-3.34,3.34,3.49,3.49,0,0,1-3.56-3.34,3.4,3.4,0,0,1,2.3-3.14v-87.4a3.94,3.94,0,0,1-2.3-3.35,3.49,3.49,0,0,1,3.56-3.34,3.3,3.3,0,0,1,3.34,3.34,3.67,3.67,0,0,1-2.3,3.35v5.43h6.07v-11.5c0-1.88-2.72-7.52-5.65-7.52-8.78,0-9.41,6.69-9.41,8.57v95.77c0,1.67-.21,2.5-1.67,2.5a69,69,0,0,0-8.57-.41c-9.62,0-22.38,3.55-27.81,7.52a6.49,6.49,0,0,1-2.3,1c-.21,0-.63,0-.63-.42,0-2.3,7.11-5.43,8-5.85,1-.42,2.3-.63,2.3-3.77V153.67a18.52,18.52,0,0,0-6.7-1.46c-7.73,0-11.5,5.23-11.5,9,0,4,4.19,6.07,4.19,6.07,0,.41-.42.2-.84.2-1.67,0-5.86-1.25-5.86-7.94s5.86-16.94,20.71-16.94v-8.36a17,17,0,0,0-10.88-4.18c-7.52,0-11.29,5-11.29,8.78,0,3.13,4.18,5.64,4.18,5.85,0,.42,0,.63-.83.63-1.47,0-6.07-1.25-6.07-8.15,0-6.49,5.86-16.73,20.49-16.73a28.05,28.05,0,0,1,4.4.21V101c0-5.85-3.14-4.6-3.14-5.85,0-.42.42-.63,1.46-.63-.42,0,5.65,1.25,15.27,1.25,6.69,0,14.22-.83,20.7-3.55,13.38-5.65,29.27-22.58,29.48-27.39.21-2.09.63-2.93,1.05-2.93.62,0,4,10.46,8.57,15.47,3.55,4,10.24,8.58,10.87,8.58a5.46,5.46,0,0,0,1.47-.63c1.46-1,18.81-13.59,21.32-23.63.63-2.3,1.05-3.14,1.47-3.14.83,0,1.46,2.51,2.09,4.19,1,3.55,11.29,15.47,24.25,15.47,9.83,0,18.82-5.23,20.08-11.5A13.13,13.13,0,0,0,246.06,62.93Z"
        fill="#231f20" />
      <circle cx="150.15" cy="150.15" r="149.15" fill="none" stroke="#231f20" stroke-miterlimit="10" stroke-width="2" />
      <path
        d="M272.21,88.31A138,138,0,0,0,210.68,28.1h-121A138,138,0,0,0,28.1,88.31V214.67a138.11,138.11,0,0,0,56.35,57.54h131.4a138.13,138.13,0,0,0,56.36-57.54Z"
        fill="none" stroke="#231f20" stroke-miterlimit="10" stroke-width="2" />
      <line x1="261.69" y1="139.98" x2="283.49" y2="139.98" fill="none" stroke="#231f20" stroke-miterlimit="10"
        stroke-width="2" />
      <line x1="261.69" y1="160.32" x2="283.49" y2="160.32" fill="none" stroke="#231f20" stroke-miterlimit="10"
        stroke-width="2" />
      <line x1="264.57" y1="150.15" x2="280.62" y2="150.15" fill="none" stroke="#231f20" stroke-miterlimit="10"
        stroke-width="2" />
      <line x1="18.32" y1="139.98" x2="40.11" y2="139.98" fill="none" stroke="#231f20" stroke-miterlimit="10"
        stroke-width="2" />
      <line x1="18.32" y1="160.32" x2="40.11" y2="160.32" fill="none" stroke="#231f20" stroke-miterlimit="10"
        stroke-width="2" />
      <line x1="21.19" y1="150.15" x2="37.24" y2="150.15" fill="none" stroke="#231f20" stroke-miterlimit="10"
        stroke-width="2" />
      <rect x="28.1" y="28.1" width="244.1" height="244.1" fill="none" stroke="#231f20" stroke-miterlimit="10"
        stroke-width="2" />
      <polyline points="119.57 63.15 150.13 10.25 186.4 73" fill="none" stroke="#231f20" stroke-linecap="round"
        stroke-miterlimit="10" stroke-width="2" />
      <polyline points="75.77 206.53 36.73 206.53 69.82 148.43" fill="none" stroke="#231f20" stroke-linecap="round"
        stroke-miterlimit="10" stroke-width="2" />
      <polyline points="220.73 132.4 263.58 206.53 222.41 206.53" fill="none" stroke="#231f20" stroke-linecap="round"
        stroke-miterlimit="10" stroke-width="2" />
    </g>
  </g>
</svg>